<svg xmlns="http://www.w3.org/2000/svg" viewBox="0 0 108.687 132.839">
  <defs>
    <style>
      .cls-1 {
        fill: #576d7e;
      }

      .cls-2 {
        fill: #35495c;
      }

      .cls-3 {
        fill: #f6b545;
      }

      .cls-4 {
        fill: #ffcb5b;
      }

      .cls-5 {
        fill: #123247;
      }

      .cls-6 {
        fill: #ffca5d;
      }

      .cls-7 {
        fill: #f19920;
      }

      .cls-8 {
        fill: #ffe27a;
      }
    </style>
  </defs>
  <g id="Symbol_2_1" data-name="Symbol 2 – 1" transform="translate(-241.06 -701.581)">
    <path id="Path_115" data-name="Path 115" class="cls-1" d="M188.821,390.038A6.056,6.056,0,0,0,182.782,384H122.4a6.056,6.056,0,0,0-6.038,6.038v15.1h72.458Z" transform="translate(142.811 417.21)"/>
    <path id="Path_116" data-name="Path 116" class="cls-2" d="M174.606,465.455a3.247,3.247,0,0,1,3.019,3.019v6.038a3.247,3.247,0,0,1-3.019,3.019H96.11a3.247,3.247,0,0,1-3.019-3.019v-6.038a3.247,3.247,0,0,1,3.019-3.019Z" transform="translate(160.045 356.889)"/>
    <path id="Path_117" data-name="Path 117" class="cls-3" d="M213.794,323.673a2.852,2.852,0,0,1-3.019-3.019v-9.963a19.469,19.469,0,0,1-6.038.906H186.622a19.47,19.47,0,0,1-6.038-.906v9.963a2.852,2.852,0,0,1-3.019,3.019,2.852,2.852,0,0,0-3.019,3.019v3.019h42.267v-3.019A2.853,2.853,0,0,0,213.794,323.673Z" transform="translate(99.724 471.499)"/>
    <path id="Path_118" data-name="Path 118" class="cls-2" d="M335.315,405.134v-15.1A6.056,6.056,0,0,0,329.276,384h-15.1v21.134Z" transform="translate(-3.683 417.21)"/>
    <path id="Path_119" data-name="Path 119" class="cls-4" d="M216.372,419.348H192.219a6.056,6.056,0,0,1-6.038-6.038h0a6.056,6.056,0,0,1,6.038-6.038h24.153a6.056,6.056,0,0,1,6.038,6.038h0A6.056,6.056,0,0,1,216.372,419.348Z" transform="translate(91.108 399.976)"/>
    <g id="Group_12" data-name="Group 12" transform="translate(292.384 807.248)">
      <path id="Path_120" data-name="Path 120" class="cls-3" d="M250.4,419.349h-6.038l6.038-12.076h6.038Z" transform="translate(-244.364 -407.273)"/>
      <path id="Path_121" data-name="Path 121" class="cls-3" d="M291.348,413.31a6.056,6.056,0,0,0-6.038-6.038l-6.038,12.076h6.038A6.056,6.056,0,0,0,291.348,413.31Z" transform="translate(-270.215 -407.272)"/>
    </g>
    <path id="Path_122" data-name="Path 122" class="cls-5" d="M174.607,465.455H153.473v3.019a6.056,6.056,0,0,1-6.038,6.038H99.13a2.852,2.852,0,0,1-3.019-3.019v-6.038a2.852,2.852,0,0,0-3.019,3.019v6.038a3.025,3.025,0,0,0,3.019,3.019h78.5a3.247,3.247,0,0,0,3.019-3.019v-6.038A3.247,3.247,0,0,0,174.607,465.455Z" transform="translate(160.045 356.889)"/>
    <path id="Path_123" data-name="Path 123" class="cls-4" d="M187.691,360.727h9.057a1.426,1.426,0,0,1,1.509,1.51h0a1.426,1.426,0,0,1-1.509,1.509h-9.057a1.426,1.426,0,0,1-1.509-1.509h0A1.426,1.426,0,0,1,187.691,360.727Z" transform="translate(91.107 434.445)"/>
    <path id="Path_124" data-name="Path 124" class="cls-3" d="M73.717,118.124H66.773A14.161,14.161,0,0,1,56.206,113.6l-5.132-5.132A13.7,13.7,0,0,1,46.545,97.9V78.876A8.9,8.9,0,0,1,55.6,69.819H70.7a3.019,3.019,0,0,1,0,6.038H55.6a2.852,2.852,0,0,0-3.019,3.019V97.9a8.222,8.222,0,0,0,2.717,6.34l5.132,5.132a8.689,8.689,0,0,0,6.34,2.717h6.944a3.019,3.019,0,1,1,0,6.038Z" transform="translate(194.515 649.877)"/>
    <g id="Group_13" data-name="Group 13" transform="translate(241.06 728.753)">
      <path id="Path_125" data-name="Path 125" class="cls-6" d="M49.565,106.236v12.076a1.426,1.426,0,0,1-1.509,1.509h0a1.426,1.426,0,0,1-1.509-1.509V106.236a1.426,1.426,0,0,1,1.509-1.509h0A1.426,1.426,0,0,1,49.565,106.236Z" transform="translate(-46.546 -104.727)"/>
      <circle id="Ellipse_31" data-name="Ellipse 31" class="cls-6" cx="1.509" cy="1.509" r="1.509" transform="translate(0 18.115)"/>
    </g>
    <path id="Path_126" data-name="Path 126" class="cls-3" d="M359.054,118.125H352.11a3.019,3.019,0,1,1,0-6.038h6.944a8.222,8.222,0,0,0,6.34-2.717l5.132-5.132a8.689,8.689,0,0,0,2.717-6.34V78.877a2.852,2.852,0,0,0-3.019-3.019h-15.1a3.019,3.019,0,0,1,0-6.038h15.1a8.9,8.9,0,0,1,9.057,9.057V97.9a14.161,14.161,0,0,1-4.529,10.567l-5.132,5.132A13.7,13.7,0,0,1,359.054,118.125Z" transform="translate(-29.535 649.876)"/>
    <g id="Group_14" data-name="Group 14" transform="translate(319.556 719.696)">
      <path id="Path_127" data-name="Path 127" class="cls-7" d="M361.167,231.564c-.6,0-1.208.3-2.113.3H352.11a3.019,3.019,0,1,0,0,6.038h8.152a21.456,21.456,0,0,0,.905-6.34Z" transform="translate(-349.091 -189.599)"/>
      <path id="Path_128" data-name="Path 128" class="cls-7" d="M360.727,72.837a2.852,2.852,0,0,0,3.019,3.019h6.038V69.818h-6.038A2.852,2.852,0,0,0,360.727,72.837Z" transform="translate(-357.708 -69.818)"/>
    </g>
    <path id="Path_129" data-name="Path 129" class="cls-6" d="M178.884,115.984H160.77A21,21,0,0,1,139.636,94.85V46.545h60.381V94.85A21,21,0,0,1,178.884,115.984Z" transform="translate(125.576 667.112)"/>
    <g id="Group_15" data-name="Group 15" transform="translate(280.308 728.753)">
      <path id="Path_130" data-name="Path 130" class="cls-7" d="M231.028,323.673a3.247,3.247,0,0,1-3.019-3.019v-9.963a19.469,19.469,0,0,1-6.038.906H203.856a19.47,19.47,0,0,1-6.038-.906v3.019a19.468,19.468,0,0,0,6.038.906h9.057a6.056,6.056,0,0,1,6.038,6.038h0a3.025,3.025,0,0,0,3.019,3.019,2.852,2.852,0,0,1,3.019,3.019v3.019h9.057v-3.019A3.025,3.025,0,0,0,231.028,323.673Z" transform="translate(-197.818 -257.254)"/>
      <path id="Path_131" data-name="Path 131" class="cls-7" d="M456.838,106.236v12.076a1.426,1.426,0,0,1-1.51,1.509h0a1.426,1.426,0,0,1-1.509-1.509V106.236a1.426,1.426,0,0,1,1.509-1.509h0A1.426,1.426,0,0,1,456.838,106.236Z" transform="translate(-387.399 -104.727)"/>
    </g>
    <g id="Group_16" data-name="Group 16" transform="translate(259.174 701.581)">
      <path id="Path_132" data-name="Path 132" class="cls-3" d="M139.636,46.545v3.019H181.9a6.056,6.056,0,0,1,6.038,6.038V94.85c0,11.774-6.34,21.134-18.114,21.134h9.057A21,21,0,0,0,200.017,94.85V46.545Z" transform="translate(-133.598 -34.469)"/>
      <path id="Path_133" data-name="Path 133" class="cls-3" d="M182.783,12.075H122.4a6.056,6.056,0,0,1-6.038-6.038h0A6.056,6.056,0,0,1,122.4,0h60.381a6.056,6.056,0,0,1,6.038,6.038h0A6.056,6.056,0,0,1,182.783,12.075Z" transform="translate(-116.363 0.001)"/>
    </g>
    <g id="Group_17" data-name="Group 17" transform="translate(250.117 701.581)">
      <path id="Path_134" data-name="Path 134" class="cls-6" d="M141.146,0h12.076a1.426,1.426,0,0,1,1.509,1.509h0a1.426,1.426,0,0,1-1.509,1.509H141.146a1.426,1.426,0,0,1-1.509-1.509h0A1.426,1.426,0,0,1,141.146,0Z" transform="translate(-124.542)"/>
      <path id="Path_135" data-name="Path 135" class="cls-6" d="M217,3.019h-6.038a1.426,1.426,0,0,1-1.509-1.509h0A1.426,1.426,0,0,1,210.964,0H217a1.426,1.426,0,0,1,1.509,1.509h0A1.426,1.426,0,0,1,217,3.019Z" transform="translate(-176.245)"/>
      <path id="Path_136" data-name="Path 136" class="cls-6" d="M89,72.838H82.964a1.426,1.426,0,0,1-1.509-1.509h0a1.426,1.426,0,0,1,1.509-1.509H89a1.426,1.426,0,0,1,1.509,1.509h0A1.426,1.426,0,0,1,89,72.838Z" transform="translate(-81.455 -51.704)"/>
      <path id="Path_137" data-name="Path 137" class="cls-6" d="M414.821,72.838h-6.038a1.426,1.426,0,0,1-1.509-1.509h0a1.426,1.426,0,0,1,1.509-1.509h6.038a1.426,1.426,0,0,1,1.509,1.509h0A1.426,1.426,0,0,1,414.821,72.838Z" transform="translate(-322.739 -51.704)"/>
    </g>
    <path id="Path_138" data-name="Path 138" class="cls-7" d="M182.783,0h0a6.056,6.056,0,0,1-6.038,6.038H116.364a6.056,6.056,0,0,0,6.038,6.038h60.079a6.461,6.461,0,0,0,6.34-5.132A6.114,6.114,0,0,0,182.783,0Z" transform="translate(142.811 701.581)"/>
    <circle id="Ellipse_32" data-name="Ellipse 32" class="cls-6" cx="1.509" cy="1.509" r="1.509" transform="translate(295.403 701.581)"/>
    <path id="Path_139" data-name="Path 139" class="cls-7" d="M228.475,140.516h-.3l-6.642-3.623-6.642,3.623h-.906a1.109,1.109,0,0,1-.3-.906l1.208-7.85-5.434-5.434v-.906a.649.649,0,0,1,.6-.6l7.548-1.208,3.321-6.944c0-.3.3-.3.6-.3h0a1.053,1.053,0,0,1,.6.3l3.321,6.944L233,124.817a.649.649,0,0,1,.6.6,1.109,1.109,0,0,1-.3.906l-5.434,5.434,1.208,7.85a1.109,1.109,0,0,1-.3.906Z" transform="translate(73.872 615.409)"/>
    <g id="Group_18" data-name="Group 18" transform="translate(271.251 722.715)">
      <path id="Path_140" data-name="Path 140" class="cls-8" d="M165.928,105.607h0a2.852,2.852,0,0,1-3.019-3.019V84.474a2.852,2.852,0,0,1,3.019-3.019h0a2.852,2.852,0,0,1,3.019,3.019v18.114A2.852,2.852,0,0,1,165.928,105.607Z" transform="translate(-162.909 -81.455)"/>
      <circle id="Ellipse_33" data-name="Ellipse 33" class="cls-8" cx="3.019" cy="3.019" r="3.019" transform="translate(0 27.172)"/>
    </g>
    <path id="Path_141" data-name="Path 141" class="cls-2" d="M122.4,384a6.056,6.056,0,0,0-6.038,6.038v15.1H122.4Z" transform="translate(142.811 417.21)"/>
  </g>
</svg>
